# xmcd
#
# Track frame offsets:
#	150
#	12302
#	23055
#	44145
#	55512
#	65922
#	77953
#	94795
#	107648
#	119850
#
# Disc length: 1786 seconds
#
# Revision: 0
# Processed by: cddbd v1.5PL3 Copyright (c) Steve Scherf et al.
# Submitted via: dBpowerAMP V4.0
#
DISCID=8b06f80a
DTITLE=Johnny Winter - Gold
DYEAR=1995
DGENRE=Blues
TTITLE0=Parchman Farm
TTITLE1=Out Of Sight
TTITLE2=Going Down Slow
TTITLE3=Avocado Green
TTITLE4=38, 32, 20
TTITLE5=Bad News
TTITLE6=Kind Hearted Woman
TTITLE7=Leavin' Blues
TTITLE8=Livin' In The Blues
TTITLE9=Low Down Gal Of Mine
EXTD=Number of CD: GOLD071N \nRelease Only In The Netherlands?
EXTT0=
EXTT1=
EXTT2=
EXTT3=
EXTT4=
EXTT5=
EXTT6=
EXTT7=
EXTT8=
EXTT9=
PLAYORDER=
